<svg xmlns="http://www.w3.org/2000/svg" version="1.1" xmlns:xlink="http://www.w3.org/1999/xlink" width="45" height="45" x="0" y="0" viewBox="0 0 100 100" style="enable-background:new 0 0 512 512" xml:space="preserve" class=""><g><g fill="#000"><path d="M50 30.5a1.5 1.5 0 0 1 1.5 1.5v17h17a1.5 1.5 0 0 1 0 3h-17v17a1.5 1.5 0 0 1-3 0V52h-17a1.5 1.5 0 0 1 0-3h17V32a1.5 1.5 0 0 1 1.5-1.5z" fill="#ffffff" opacity="1" data-original="#000000" class=""></path><path fill-rule="evenodd" d="M50 83c18.225 0 33-14.775 33-33S68.225 17 50 17 17 31.775 17 50s14.775 33 33 33zm0-3c16.569 0 30-13.431 30-30S66.569 20 50 20 20 33.431 20 50s13.431 30 30 30z" clip-rule="evenodd" fill="#ffffff" opacity="1" data-original="#000000" class=""></path></g></g></svg>