<svg xmlns="http://www.w3.org/2000/svg" version="1.1" xmlns:xlink="http://www.w3.org/1999/xlink" width="55" height="55" x="0" y="0" viewBox="0 0 32 32" style="enable-background:new 0 0 512 512" xml:space="preserve" class=""><g><path d="M25.15 28A9.969 9.969 0 0 0 17 14.05V10h3a7.008 7.008 0 0 0 7-7 1 1 0 0 0-1-1h-4a7.021 7.021 0 0 0-6.57 4.6A6.953 6.953 0 0 0 10 4H6a1 1 0 0 0-1 1 7.008 7.008 0 0 0 7 7h3v2.05A9.969 9.969 0 0 0 6.85 28H2v2h28v-2zM22 4h2.9A5.009 5.009 0 0 1 20 8h-2.9A5.009 5.009 0 0 1 22 4zm-10 6a5.009 5.009 0 0 1-4.9-4H10a5.009 5.009 0 0 1 4.9 4zm4 13a3 3 0 0 1 2.23 5h-4.46a2.984 2.984 0 0 1-.77-2h2a1 1 0 1 0 1-1 3 3 0 0 1-1-5.82V18h2v1.18A3.01 3.01 0 0 1 19 22h-2a1 1 0 1 0-1 1z" fill="#ffffff" opacity="1" data-original="#000000" class=""></path></g></svg>