<svg xmlns="http://www.w3.org/2000/svg" version="1.1" xmlns:xlink="http://www.w3.org/1999/xlink" width="45" height="45" x="0" y="0" viewBox="0 0 24 24" style="enable-background:new 0 0 512 512" xml:space="preserve" class=""><g transform="matrix(6.123233995736766e-17,-1,1,6.123233995736766e-17,0.0002551078796386719,23.36297369003296)"><g fill="#000"><path d="M7.146 7.146a.75.75 0 0 1 1.061 0l8.5 8.5a.75.75 0 1 1-1.06 1.061l-8.5-8.5a.75.75 0 0 1 0-1.06z" fill="#ffffff" opacity="1" data-original="#000000" class=""></path><path d="M16.177 6.427a.75.75 0 0 1 .75.75v9a.75.75 0 0 1-.75.75h-9a.75.75 0 0 1 0-1.5h8.25v-8.25a.75.75 0 0 1 .75-.75z" fill="#ffffff" opacity="1" data-original="#000000" class=""></path></g></g></svg>